<svg xmlns="http://www.w3.org/2000/svg" viewBox="0 0 120 160">
  <rect width="120" height="160" rx="18" fill="#ffffff"/>
  <path d="M65 20c-10 10-18 18-22 30-3 10 2 18 11 25 9 7 14 14 13 28-2 20-15 40-25 50-10 10-1 24 12 24h20c13 0 22-12 18-25-2-7-6-14-9-20-7-15-4-32 7-42 11-11 18-26 12-42-4-10-12-18-23-28" fill="#22c55e" stroke="#1f2937" stroke-width="2"/>
  <path d="M58 22c2-8 6-12 14-16" stroke="#166534" stroke-width="4" stroke-linecap="round"/>
  <circle cx="80" cy="72" r="6" fill="#ffffff" opacity="0.35"/>
</svg>
